<?xml version="1.0" encoding="UTF-8" standalone="no"?>
<svg width="2395px" height="403px" viewBox="0 0 2395 403" version="1.1" xmlns="http://www.w3.org/2000/svg" xmlns:xlink="http://www.w3.org/1999/xlink" xmlns:sketch="http://www.bohemiancoding.com/sketch/ns">
    <title>Slice 1</title>
    <description>Created with Sketch (http://www.bohemiancoding.com/sketch)</description>
    <defs></defs>
    <g id="Page 1" stroke="none" stroke-width="1" fill="none" fill-rule="evenodd">
        <path d="M102.633726,185.667201 C101.888936,185.699737 101.519714,185.34888 101.339117,185.042385 C101.339117,185.042385 96.747924,184.090638 95.3994618,184.497953 C94.0509996,184.905269 86.3495144,183.554271 82.9703322,181.110377 C79.5911501,178.674548 76.2159812,180.436894 73.1097021,178.537431 C70.0074364,176.637969 65.2757787,176.908168 61.7681716,176.775085 C58.2565512,176.642002 53.7977966,176.908168 52.1764313,179.077831 C50.555066,181.24346 44.2100696,187.889563 41.9144732,190.595592 C39.6188768,193.305653 30.3000395,203.061068 26.6519676,204.549182 C26.6519676,204.549182 27.5950885,206.045361 27.0573089,207.12616 C26.5155161,208.215024 26.9208574,211.324335 26.9208574,212.413199 C26.9208574,213.502063 27.1897472,215.256344 26.2506396,216.345208 C25.2994921,217.430039 24.7617125,219.188353 24.7617125,219.865868 C24.7617125,220.543384 23.6781268,222.983245 24.7617125,226.237739 C25.841285,229.492232 26.7844059,233.145976 22.3296646,231.657862 C17.87091,230.169748 18.8180442,226.104655 15.1739855,225.963506 C11.5299269,225.830423 6.80228248,225.963506 5.44980696,220.954732 C4.09331817,215.937892 1.53284524,207.400392 0.991052377,206.045361 C0.453272796,204.694364 -1.4369823,198.459609 2.0746381,193.039486 C5.5862585,187.619363 6.26048961,183.687355 6.80228248,182.465407 C7.34006206,181.247493 9.90856155,173.520592 11.7948034,172.431728 C13.6850585,171.346896 13.0068141,167.95932 14.0903998,166.471206 C15.1699722,164.979059 14.7646309,162.539197 15.438862,161.184166 C16.1130931,159.829135 16.3859962,155.901159 17.3291171,152.920898 C18.2762513,149.940637 21.3825304,145.327081 23.2727855,142.891252 C25.1630406,140.455423 26.2466263,136.797646 26.2466263,135.575699 C26.2466263,134.353751 25.5723952,131.784839 28.674661,129.615177 C31.7769267,127.445515 37.3152538,120.400161 37.8570466,119.31533 C37.8570466,119.045131 37.8570466,114.032324 37.5841436,112.269977 C37.3152538,110.507631 36.9099124,108.8824 38.663716,108.204885 C40.4255461,107.523337 42.8535808,106.03119 42.8535808,106.03119 C42.8535808,106.03119 41.168003,103.86556 37.5199311,102.034656 C33.8718591,100.207784 22.9316566,87.8068334 21.9203099,80.4912807 C20.90495,73.1716952 20.4996087,61.585376 30.4284645,57.5202839 C40.3573204,53.4511589 51.2935096,51.2169714 52.9188882,51.0153299 C54.5402535,50.8136884 60.2110188,49.5917411 62.4424027,51.2169714 C62.4424027,51.2169714 60.0103547,50.8136884 58.9990081,51.2169714 C57.9836481,51.6242872 63.8550774,51.4226457 65.2757787,53.047876 C65.2757787,53.047876 62.4424027,52.2372773 60.8210374,52.4389187 C59.2036854,52.6405602 63.6584267,54.4714648 64.4691093,55.8950536 C65.2757787,57.3186424 68.3178453,58.3349155 67.912504,60.5731358 C67.5111759,62.8073234 67.3064986,66.2634582 67.7078267,67.2797313 C68.1171813,68.2960043 69.1285279,70.1269089 69.3332052,72.9700537 C69.5378825,75.8172313 70.3485652,79.680682 71.1552346,81.5075537 C71.9659172,83.3384583 73.9926238,89.0287808 73.1819412,93.0938729 C73.1819412,93.0938729 73.9926238,95.126419 78.0420238,90.4523696 C82.0954371,85.7742874 86.1488503,84.9636886 88.1715437,84.9636886 C90.1982503,84.9636886 93.2403169,82.9271097 95.2630103,83.7417413 C97.2937302,84.5563728 99.5251141,83.5400998 101.953149,84.1490571 C104.381183,84.7580143 114.510703,84.1490571 116.742087,83.3344255 C118.965445,82.5197939 126.66693,81.5035209 128.284282,81.5035209 C129.905647,81.5035209 126.261588,78.8620176 129.299642,76.8294715 C132.341708,74.7969255 126.056911,73.7806524 130.720343,67.8886885 C135.375748,61.9926918 130.916994,60.3674615 130.110324,59.149547 C129.303655,57.9275997 129.098978,54.064149 129.098978,51.8299615 C129.098978,49.5917411 128.492972,43.9014187 128.492972,43.9014187 L129.303655,42.8851456 C129.303655,42.8851456 128.64949,41.8043473 128.007365,41.4212285 C127.369254,41.0381097 126.731142,38.7313313 126.225469,37.1948232 C125.707756,35.6583152 120.093176,27.3305223 118.435692,26.0521153 C116.774193,24.7656427 116.521357,22.8500487 116.774193,21.0554396 C117.031043,19.2567976 118.303253,17.7243224 118.050417,15.8006627 C117.793567,13.8810359 117.921992,11.3201892 117.793567,10.424901 C117.669155,9.52558004 118.050417,4.14981832 119.202228,3.63764897 C119.202228,3.63764897 120.093176,3.25049734 120.478451,4.52890429 C120.478451,4.52890429 119.836326,0.0484307194 121.240975,0.0484307194 C121.240975,0.0484307194 122.902473,-0.463738627 123.540584,1.84303985 C124.174683,4.14981832 124.816808,5.42822527 124.945233,6.06944516 C125.073657,6.71066505 125.583344,7.73097091 125.583344,7.73097091 C125.583344,7.73097091 126.983979,7.09781668 128.13579,7.6059532 C129.283589,8.11812254 130.054139,8.63029189 130.054139,9.27151178 C130.054139,9.91273167 130.054139,8.75934243 131.458787,8.75934243 C132.859422,8.75934243 134.139658,8.3721908 134.524933,9.78368113 C134.902181,11.1911386 135.163045,12.2195101 135.287456,13.6269676 C135.419894,15.0344251 135.672731,16.1878144 136.182418,17.2121531 C136.696118,18.2364918 137.454628,20.0270681 137.454628,22.4628971 C137.454628,24.8987261 138.353603,29.3791997 138.734864,31.4319099 C139.116126,33.4805873 143.458495,41.4212285 143.458495,41.4212285 C143.458495,41.4212285 150.096461,42.7036683 153.158594,42.0624484 C156.22474,41.4212285 161.58247,42.5746178 160.948371,45.3935656 C160.31026,48.2084806 159.928998,56.5362735 159.672148,63.0694573 C159.415298,69.6026411 158.391912,82.281857 157.372539,86.7663634 C156.349152,91.246837 150.096461,102.905747 147.544015,104.825374 C144.995582,106.749034 142.182272,108.027441 135.163045,111.358558 C128.139804,114.689675 119.968765,118.403911 119.968765,118.403911 C119.968765,118.403911 124.311134,124.549943 125.330507,124.937095 C126.349881,125.320213 126.225469,124.041806 127.497679,124.549943 C128.131777,124.804011 130.335068,125.67107 128.934433,125.094375 C128.931423,125.14785 136.624855,127.124286 136.624855,127.124286 C137.362117,127.109658 137.818376,126.975746 137.72653,126.538861 C137.341089,124.749601 139.131783,122.444519 139.894634,121.928696 C140.661501,121.416903 138.746342,124.233779 139.894634,125.511246 C141.046942,126.796773 157.548625,121.892427 157.23947,122.770938 C156.934329,123.649448 158.134817,123.717956 159.186749,122.891834 C160.230651,122.069741 164.602995,119.212567 167.718641,119.224657 C170.842318,119.240776 177.908732,119.865405 179.803816,119.172268 C181.6989,118.483162 190.315108,113.14762 193.193869,111.737168 C196.0646,110.318655 205.985685,110.455671 210.173339,107.626706 C214.360992,104.793711 223.583466,98.1645828 227.478024,95.7506937 C231.368567,93.3408345 260.240492,75.6255485 266.399514,74.6624108 C272.558537,73.6992731 287.321722,67.855969 289.851178,66.0465597 C292.380633,64.2411802 300.338379,59.8445976 301.932337,58.4663838 C303.530311,57.08817 311.512147,60.5901226 315.671696,66.5261136 C315.671696,66.5261136 323.786027,62.5405772 325.536571,62.3874423 C327.283099,62.2343075 330.519196,59.9735533 333.000471,58.0674272 C335.485761,56.1572712 342.969737,51.0997908 346.241968,49.4999344 C346.241968,49.4999344 347.896152,48.7705289 348.213338,47.6058979 C348.530523,46.441267 349.851461,44.2167816 351.039903,44.6761862 C351.039903,44.6761862 353.645644,41.339458 354.701591,42.3428944 C354.701591,42.3428944 356.990146,40.1707972 358.303053,41.3515476 C358.303053,41.3515476 359.599901,41.5369214 360.037537,42.2381179 C360.037537,42.2381179 361.68369,40.9042326 362.446542,41.9157287 C362.446542,41.9157287 363.634984,40.5697538 365.638473,42.1494609 C365.638473,42.1494609 366.971456,43.7976756 364.518286,46.828134 C364.518286,46.828134 362.980538,47.6260473 361.904516,49.8505327 C360.836523,52.0750181 357.845342,56.3023464 354.569096,57.9586208 C351.284819,59.6148953 347.494651,62.5244578 347.635176,68.4725383 C347.779717,74.4246488 345.254276,81.3439268 339.026999,79.7883989 C332.799721,78.2328711 327.33931,80.3324307 321.886928,83.3105008 C321.886928,83.3105008 321.409142,86.4537955 320.883176,87.2033503 C320.353195,87.9488753 317.916085,87.7070834 314.563553,89.8147028 C311.215036,91.9182922 309.171397,92.7081458 306.529522,94.6908393 C303.883631,96.6735328 303.317515,98.0114479 301.093201,99.0471232 C298.868886,100.090858 296.371551,102.919823 294.898043,104.487441 C293.416505,106.051028 287.968139,109.899549 281.528065,113.042844 C275.083977,116.190168 248.596968,125.672441 242.47408,130.657383 C236.343162,135.642326 225.073034,144.572507 207.969099,152.970745 C207.258443,153.317314 206.599981,153.655822 205.929475,153.990301 C204.893603,154.937319 190.186628,168.437367 185.151807,171.967528 C179.932296,175.626646 177.844492,176.150528 176.278639,184.520557 C175.250797,190.037443 171.055113,198.943444 168.156277,206.036006 C167.517891,212.939165 167.152525,219.64486 166.99594,223.731143 C166.795189,229.014296 160.053991,281.551644 158.431927,287.233754 C156.805849,292.923923 156.404348,297.19155 157.21538,301.66067 C158.026411,306.12173 155.998832,311.404883 153.569752,315.874003 C151.132642,320.343124 147.081499,330.9054 147.687765,336.998555 C148.294031,343.091711 148.904313,345.328286 147.081499,346.138289 C145.25467,346.948292 139.376698,346.750828 138.569681,348.78188 C137.75865,350.812932 134.719288,350.812932 134.719288,350.812932 C134.719288,350.812932 133.807882,359.876098 135.397825,361.471925 C136.991783,363.059691 142.612795,369.737178 135.775236,374.710031 C128.929647,379.690944 121.714677,384.107676 120.032388,387.585449 C118.34207,391.055163 114.592052,393.033826 113.186799,394.158159 C111.781546,395.282491 109.252091,396.882347 109.063386,397.535186 C108.878695,398.196083 106.818996,399.417132 104.847627,398.856981 C104.847627,398.856981 103.161324,399.602506 101.37866,397.627872 C101.37866,397.627872 98.479824,397.909963 97.9137078,396.036076 C97.9137078,396.036076 95.4765978,396.21742 95.1955472,394.343533 C95.1955472,394.343533 93.9749847,391.619344 97.6326572,390.495012 C101.2823,389.36262 107.096032,381.190054 107.284737,379.876318 C107.469427,378.562582 110.191603,370.385986 112.251302,367.008959 C114.311002,363.623873 117.029162,354.794439 117.406573,346.718589 C117.406573,346.718589 116.567436,346.158438 116.567436,345.316196 C116.567436,344.465895 116.615616,340.585135 117.021132,339.098115 C117.430663,337.603035 118.23768,333.27496 117.699668,326.907774 C117.157642,320.548647 118.5107,310.119356 117.699668,302.942167 C116.888637,295.764978 118.4304,245.939728 120.590474,239.439556 C122.754564,232.939384 123.561581,231.452364 123.429085,228.87728 C123.292575,226.302197 123.429085,218.44799 124.240117,218.045003 C125.047134,217.637987 125.183644,207.752729 124.914638,206.664665 C124.641618,205.584661 118.831901,201.522557 118.024884,198.677473 C118.024884,198.677473 118.157379,201.655543 118.024884,202.739577 C117.888374,203.82361 117.755879,202.469576 115.591789,200.164493 C113.423685,197.85941 109.372541,192.987304 109.103536,189.465202 C108.620026,189.20344 102.633726,185.667201 102.633726,185.667201 L102.633726,185.667201 Z M102.633726,185.667201" id="Shape" fill="#000000"></path>
        <path d="M128.95299,125 C128.340375,135.998967 102.618484,186.096395 102.618484,186.096395 C101.719451,190.529116 101.906418,194.666861 102.359912,197.127688 C103.44989,203.027208 98,211.876487 98,211.876487 L103.935209,215 C111.950924,210.353118 108.513913,196.416513 108.513913,196.416513 C107.849583,193.92336 107.789913,191.523145 108.128044,189.268397 L108.191693,189.333049 C108.191693,189.333049 137.362529,131.513716 135.950331,126.959772 C135.946353,126.967853 132.469562,126.466798 128.95299,125 L128.95299,125 L128.95299,125 Z M128.95299,125" id="Shape" fill="#991B21"></path>
        <path d="M624.993498,112.616253 L653.616385,112.616253 L653.616385,322.386005 L625.342557,322.386005 L624.993498,112.616253 Z M549.872257,62.453489 L540.670395,89.5694068 C523.151462,82.1258216 497.138501,74.505008 476.434308,74.505008 L474.841677,74.505008 C429.009317,74.505008 419.984414,91.1644607 419.984414,122.356628 L419.984414,123.065541 C419.984414,150.713143 430.071071,160.99238 447.943921,165.600314 C460.331046,168.790422 471.833377,170.917161 482.273953,172.512215 L485.63617,173.043899 C530.583736,180.133028 559.074122,184.563734 559.074122,245.530242 L559.074122,247.834208 C559.074122,309.509631 523.328422,327.586907 473.602965,327.586907 C448.474798,327.586907 411.313427,322.978974 383,306.142294 L394.679288,281.330342 C410.78255,289.837297 438.742059,302.597729 473.249048,302.597729 C516.603982,302.597729 527.929353,285.052134 527.929353,252.442142 L527.929353,245.530242 C527.929353,212.565793 521.381873,207.071718 475.195596,199.805361 C424.939263,192.007319 389.901397,183.677593 389.901397,124.660595 L389.901397,122.888312 C389.901397,66.8841944 421.223126,49.3386005 473.249048,49.3386005 L475.549514,49.3386005 C498.554172,49.3386005 529.168064,52.8831649 549.872257,62.453489 L549.872257,62.453489 Z M640.349546,61.4740406 C624.929388,61.4740406 619.789337,57.4538639 619.789337,39.9748349 C619.789337,23.0201767 625.461118,19 640.349546,19 C655.769701,19 660.555267,23.0201767 660.555267,39.9748349 C660.555267,57.1042834 655.769701,61.4740406 640.349546,61.4740406 L640.349546,61.4740406 Z M901.804428,19 L901.804428,225.746366 C901.804428,269.532104 903.037318,297.074746 905.150845,320.909723 L878.907892,323.028387 L874.680839,298.840299 C861.295174,308.903955 833.290952,325.853273 799.122276,325.853273 C736.949379,325.853273 732.546199,276.064653 732.546199,224.687034 C732.546199,157.066318 732.193945,108.69014 802.292567,108.69014 C827.1265,108.69014 851.960434,112.574359 872.567314,121.578684 L872.567314,21.8248863 L901.804428,19 Z M873.91071,224.114104 L874.087216,145.723076 C856.436642,139.909809 835.079449,135.153499 812.663219,135.153499 C774.008466,135.153499 763.771131,139.20517 763.771131,224.290264 L763.771131,228.165775 C763.771131,279.604383 772.59642,298.981941 807.191543,298.981941 L809.839128,298.981941 C832.078851,298.981941 860.319768,286.298449 874.793238,275.024234 L874.793238,274.671913 C874.087216,261.636102 873.91071,245.429418 873.91071,224.114104 L873.91071,224.114104 Z M974.539662,216.620217 L974.539662,207.634918 C974.539662,130.114684 1005.42496,109.148984 1067.9015,109.148984 C1136.37861,109.148984 1147.14434,142.799813 1147.14434,197.063977 C1147.14434,209.572923 1146.79137,218.910588 1146.08542,227.367341 C1124.02449,228.424435 1095.43353,228.424435 1073.01963,228.424435 C1052.72358,228.424435 1019.19098,226.838794 1004.54252,224.548423 C1004.54252,273.879481 1012.13148,300.659198 1063.48931,300.659198 C1090.3154,300.659198 1115.5531,295.021363 1136.37861,286.036063 L1145.02649,311.23014 C1145.02649,311.23014 1109.9055,325.853273 1064.37175,325.853273 C1030.30968,325.853273 1006.66037,319.863074 991.658939,302.068657 C978.069409,285.859882 974.539662,254.147058 974.539662,216.620217 L974.539662,216.620217 Z M1004.02991,203.632054 L1116.78674,203.632054 L1116.78674,186.567826 C1116.78674,151.01735 1105.49341,133.419865 1064.55509,133.419865 C1016.91136,133.419865 1004.02991,151.195102 1004.02991,203.632054 L1004.02991,203.632054 Z M1220.86996,322.386005 L1220.86996,22.1823706 L1250.09024,19 L1250.09024,201.455919 C1251.1464,201.632717 1254.66691,201.809515 1258.89153,199.687935 C1277.19821,190.49442 1324.9012,133.742143 1339.86339,111.995943 L1374.7165,111.995943 C1365.91521,131.090167 1302.3699,199.687935 1287.40771,205.69908 L1287.40771,207.467063 C1293.92066,210.649434 1301.84182,212.947813 1322.61286,239.29077 L1388.27048,322.386005 L1351.30507,322.386005 L1306.59452,263.512147 C1283.53514,233.102827 1270.68526,224.439707 1262.7641,222.141328 C1258.53948,220.903739 1251.8505,220.903739 1250.09024,221.080538 L1250.09024,322.386005 L1220.86996,322.386005 Z M1438.57737,112.616253 L1467.20026,112.616253 L1467.20026,322.386005 L1438.92643,322.386005 L1438.57737,112.616253 Z M1453.06606,61.4740406 C1437.6459,61.4740406 1432.50585,57.4538639 1432.50585,39.9748349 C1432.50585,23.0201767 1438.17763,19 1453.06606,19 C1468.48622,19 1473.27178,23.0201767 1473.27178,39.9748349 C1473.27178,57.1042834 1468.48622,61.4740406 1453.06606,61.4740406 L1453.06606,61.4740406 Z M1687.78414,403 L1687.78414,302.578843 C1673.8802,312.462121 1648.36032,326.228113 1616.68047,326.228113 C1552.26477,326.228113 1547.86479,276.458752 1547.86479,225.101007 C1547.86479,157.506449 1547.5128,109.148984 1617.56047,109.148984 C1642.37635,109.148984 1668.24823,117.090904 1688.66413,127.150668 L1691.48012,112.678726 L1716.824,112.678726 L1717,403 L1687.78414,403 Z M1622.82966,298.981941 L1625.49419,298.981941 C1648.05388,298.981941 1673.81101,288.412363 1688.37711,278.018946 L1688.37711,151.007864 C1673.10047,143.60916 1648.58679,135.153499 1626.56,135.153499 C1587.65786,135.153499 1577.35501,139.20517 1577.35501,224.290264 L1577.35501,228.165775 C1577.35501,279.604383 1588.01313,298.981941 1622.82966,298.981941 L1622.82966,298.981941 Z M1622.82966,298.981941" id="Sidekiq Pro" fill="#991B21"></path>
        <path d="M1837,339.604863 L1837,69.7803553 C1869.59049,66.7705019 1902.70949,65 1938.99945,65 C1999.24782,65 2013.16485,92.088681 2013.16485,138.121734 L2013.16485,159.013657 C2013.16485,197.610602 2005.76592,224.876333 1984.27382,240.987901 C1967.53815,253.381415 1946.2222,254.974868 1928.2534,254.974868 C1908.52294,254.974868 1888.79247,253.558467 1866.94803,250.194512 L1866.94803,339.604863 L1837,339.604863 Z M1867.37325,92.9325102 L1867.37325,225.523541 C1885.27707,227.821785 1909.38516,229.589666 1929.7707,229.589666 C1975.15067,229.589666 1983.65941,212.618014 1983.65941,159.75839 L1983.65941,137.836673 C1983.65941,103.893369 1971.60536,90.9878419 1941.11569,90.9878419 C1917.36213,90.9878419 1891.65862,90.9878419 1867.37325,92.9325102 L1867.37325,92.9325102 Z M2075.64697,343.069909 L2075.64697,131.788038 L2101.39345,131.788038 L2104.21499,159.840589 C2104.21499,159.840589 2119.20439,135.694089 2139.48416,130.190108 C2145.65627,128.592178 2150.59394,128.237082 2155.70798,128.237082 C2163.64354,128.237082 2174.57698,131.432942 2174.57698,131.432942 L2171.93178,159.663041 C2163.99623,157.710015 2155.70798,157.532468 2150.94663,157.532468 C2132.78303,157.532468 2117.61728,167.830239 2104.92039,180.258585 L2104.92039,343.069909 L2075.64697,343.069909 Z M2220.57076,241.383499 C2220.57076,170.214842 2228.34674,131.702128 2310.17119,131.702128 C2391.99566,131.702128 2395,170.924753 2395,239.963675 C2395,313.439543 2384.04294,350 2307.34356,350 C2227.63982,350 2220.57076,312.197198 2220.57076,241.383499 L2220.57076,241.383499 Z M2307.70504,325.744681 C2360.20736,325.744681 2364.62675,301.885865 2364.62675,237.378693 C2364.62675,183.121976 2361.62156,158.556231 2309.47278,158.556231 C2254.49559,158.556231 2250.07621,183.121976 2250.07621,237.908889 C2250.07621,297.467564 2252.72785,325.744681 2307.70504,325.744681 L2307.70504,325.744681 Z M2307.70504,325.744681" id="Path" fill="#000000"></path>
    </g>
</svg>