<?xml version="1.0" encoding="UTF-8"?>
<svg width="340px" height="340px" viewBox="0 0 340 340" version="1.1" xmlns="http://www.w3.org/2000/svg" xmlns:xlink="http://www.w3.org/1999/xlink">
    <!-- Generator: Sketch 51.3 (57544) - http://www.bohemiancoding.com/sketch -->
    <title>Sidekiq-Alt-Circle-v3</title>
    <desc>Created with Sketch.</desc>
    <defs>
        <circle id="path-1" cx="149.238477" cy="149.238477" r="149.238477"></circle>
    </defs>
    <g id="Sidekiq-Alt-Circle-v3" stroke="none" stroke-width="1" fill="none" fill-rule="evenodd">
        <g id="Group-7" transform="translate(20.000000, 20.000000)">
            <g id="Rectangle" transform="translate(0.304760, 0.000000)">
                <mask id="mask-2" fill="white">
                    <use xlink:href="#path-1"></use>
                </mask>
                <use id="Mask" fill="#B1003E" fill-rule="nonzero" xlink:href="#path-1"></use>
            </g>
            <g id="Group-5" transform="translate(50.269264, 46.691198)" fill="#FFFFFF" fill-rule="nonzero">
                <path d="M39.9395374,31.660098 C28.0533651,32.258752 20.3016779,34.6112623 16.6844758,38.7176288 C13.0672738,42.8239954 12.7899952,48.5741132 15.8526401,55.9679822 C17.9854555,59.4968861 19.8338662,62.0793863 21.3978722,63.7154825 C22.9618782,65.3515787 25.3641528,67.1028435 28.6046959,68.9692767 L24.3423172,71.3991752 L21.3978722,80.3846492 L14.2267269,93.486488 L2.30415827,122.822785 L0,129.833372 C1.55344864,138.95437 2.9178572,144.035659 4.09322567,145.077237 C5.26859415,146.118816 7.42167441,146.546553 10.5524665,146.360447 C13.6928802,149.866299 15.7368833,151.117182 16.6844758,150.113096 C17.0618004,149.713276 17.658117,149.139161 17.3832544,147.201962 C17.2601635,146.334433 16.0491813,144.652697 16.1420834,143.524536 C16.2315054,142.438638 17.2490929,141.229268 17.5854427,138.882775 C17.7300388,137.874022 17.7300388,135.929855 17.5854427,133.050274 L36.4785418,113.707237 L47.3452495,115.999503 L61.7076791,118.549072 L65.32586,119.526352 C74.4755981,102.224849 79.654008,92.1717814 80.8610897,89.36715 C82.0681713,86.5625187 82.8042631,83.5683517 83.0693652,80.3846492 L78.3986134,76.0907388 C89.5794795,71.7953872 95.932019,68.6590067 97.4562321,66.681597 C99.7425517,63.7154825 103.870711,54.7638958 103.870711,51.3752966 C103.870711,49.1162305 104.205186,41.2773849 104.874135,27.85876 C98.3347854,28.6793377 94.518802,28.6793377 93.426185,27.85876 C91.7872595,26.6278935 90.2479331,21.71632 90.2479331,17.5859305 C90.2479331,14.8323375 89.3973766,11.1154577 87.6962637,6.43529106 L83.0693652,5.16131452 C82.3721715,1.72043817 81.6360797,0 80.8610897,0 C80.0860996,0 79.2652742,0.821073172 78.3986134,2.46321952 C77.4150104,6.23064216 76.9232088,8.57320307 76.9232088,9.49090223 C76.9232088,10.867451 75.9361372,14.7733709 78.3986134,17.5859305 C80.0402642,19.4609703 81.9700587,22.8852468 84.1879969,27.85876 C82.8055019,32.9421064 82.8055019,36.1768473 84.1879969,37.5629827 C86.2617393,39.6421858 84.1879969,42.3875928 84.1879969,43.9782053 C84.1879969,45.0386136 83.8151197,47.5043107 83.0693652,51.3752966 C70.3499161,53.5768827 63.0662983,54.3100014 61.2185121,53.5746528 C59.3707258,52.8393043 56.4435776,53.6370807 52.4370676,55.9679822 L47.3452495,60.85059 C48.2218206,57.0864703 48.2218206,54.3236274 47.3452495,52.5620612 C46.0303927,49.919712 45.2995489,48.2532161 45.2995489,45.8524319 C45.2995489,44.8582808 43.9206453,42.5688115 43.9206453,40.9147713 C43.9206453,40.2421954 44.1070692,39.1249325 44.4799172,37.5629827 L40.8537491,34.1313982 C41.7059378,34.0911351 42.184861,33.851203 42.2905187,33.411602 C42.3961764,32.972001 41.6125159,32.3881663 39.9395374,31.660098 Z" id="Path-2-Copy-2"></path>
                <path d="M94.3859531,86.7241529 C90.3128126,98.6307574 87.3674432,106.452816 85.549845,110.19033 C83.7322467,113.927844 80.4818806,119.038821 75.7987465,125.523261 C79.669749,129.940909 81.6052502,132.978047 81.6052502,134.634675 C81.6052502,137.119617 81.1770817,151.201278 79.8290351,157.796833 C78.9303374,162.19387 78.0169763,184.238684 77.088952,223.931276 C77.0896037,230.815861 76.3987991,235.074737 75.0165381,236.707903 C72.9431466,239.157653 70.5354318,245.753208 70.5354318,247.547019 C70.5354318,249.34083 63.2722076,255.735986 63.2722076,255.735986 C63.2722076,255.735986 65.2947662,259.488815 67.0465425,259.488815 C68.7983188,259.488815 76.5952874,254.599091 79.8290351,250.524648 C83.0627829,246.450204 85.3610117,246.860776 87.2418251,245.130506 C89.1226384,243.400236 92.5303908,238.74317 90.8265146,236.707903 C89.6905972,235.351058 89.1226384,232.39852 89.1226384,227.850289 C91.7027286,226.322698 93.660117,225.558903 94.9948037,225.558903 C96.9968337,225.558903 95.3682292,218.413963 97.9694997,210.909283 C99.70368,205.906163 103.831238,179.848164 110.352173,132.735288 C114.351671,120.963586 117.059495,114.511406 118.475644,113.378747 C119.891794,112.246088 125.541403,107.452164 135.424471,98.9969763 C151.119422,89.2853058 159.872438,83.6431915 161.683519,82.0706334 C164.400141,79.7117962 190.960276,72.157261 194.591888,67.344764 C197.012963,64.1364326 202.15457,60.4223802 210.016708,56.2026065 L210.016708,53.209337 C214.975513,51.5070901 218.224901,50.6559667 219.764874,50.6559667 C222.074834,50.6559667 225.165261,52.0713636 226.814014,48.4564708 C228.462767,44.8415779 227.384906,40.8159108 229.689,38.9204341 C231.993094,37.0249574 235.809949,33.6909544 236.974555,31.711616 C238.139162,29.7322777 240.625302,28.320932 239.382232,26.7141692 C238.139162,25.1074063 231.578726,25.8871008 230.633863,27.4045442 C229.689,28.9219876 224.718548,31.6701639 221.304177,34.7040637 C219.027929,36.7266636 214.264884,39.2057302 207.015042,42.1412635 C202.45827,38.0611913 199.462368,36.3575424 198.027336,37.0303168 C195.874787,38.0394783 180.184872,46.2569749 172.870858,48.4564708 C165.556844,50.6559667 140.274107,68.3756421 133.627806,70.0204713 C126.981506,71.6653005 121.381516,73.5621171 118.475644,75.7555771 C115.569772,77.9490371 111.939878,77.0601701 107.82302,77.5046036 C105.745765,77.7288528 102.405532,81.2731046 96.3311498,82.9016294 C95.5530971,83.6472939 94.9046982,84.9214684 94.3859531,86.7241529 Z" id="Path-3-Copy-2"></path>
                <path d="M64.790455,120.481873 C64.2029273,123.382064 64.5520385,126.463059 64.790455,128.126379 C66.0764615,137.098246 57.3469499,139.385795 57.3469499,139.385795 L61.9496105,143.354658 C71.2028988,141.664417 71.2028988,129.884133 71.2028988,129.884133 C70.7677409,128.25326 70.3381903,122.920637 70.5602887,121.447299 C70.581489,121.467857 75.9808267,115.070412 80.6347097,105.170205 C83.0247601,100.08585 85.2841711,93.7203183 86.8265048,89.5256815 C88.3173013,85.4712086 88.6023625,82.8587244 88.3740267,82.1233299 C88.3740267,82.3752327 85.5962337,81.2020148 82.9648796,80.4972346 C82.8742806,82.125386 82.024552,85.1925248 80.805042,88.2961793 C79.5656077,91.4505413 77.158709,95.1190112 75.1612026,99.2299541 C70.4403948,108.945553 64.5370383,119.919039 64.790455,120.481873 Z" id="Shape_2_"></path>
            </g>
        </g>
    </g>
</svg>