<?xml version="1.0" encoding="UTF-8"?>
<svg width="950px" height="300px" viewBox="0 0 950 300" version="1.1" xmlns="http://www.w3.org/2000/svg" xmlns:xlink="http://www.w3.org/1999/xlink">
    <!-- Generator: Sketch 51.3 (57544) - http://www.bohemiancoding.com/sketch -->
    <title>Sidekiq-Alt-Horizontal-v3</title>
    <desc>Created with Sketch.</desc>
    <defs>
        <circle id="path-1" cx="119.390782" cy="119.390782" r="119.390782"></circle>
    </defs>
    <g id="Sidekiq-Alt-Horizontal-v3" stroke="none" stroke-width="1" fill="none" fill-rule="evenodd">
        <g id="Group-7" transform="translate(50.000000, 31.000000)">
            <g id="Rectangle" transform="translate(0.243808, 0.000000)">
                <mask id="mask-2" fill="white">
                    <use xlink:href="#path-1"></use>
                </mask>
                <use id="Mask" fill="#B1003E" fill-rule="nonzero" xlink:href="#path-1"></use>
            </g>
            <g id="Group-5" transform="translate(40.215411, 37.352959)" fill="#FFFFFF" fill-rule="nonzero">
                <path d="M31.9516299,25.3280784 C22.4426921,25.8070016 16.2413423,27.6890098 13.3475807,30.9741031 C10.453819,34.2591963 10.2319961,38.8592905 12.682112,44.7743857 C14.3883644,47.5975089 15.8670929,49.663509 17.1182978,50.972386 C18.3695026,52.281263 20.2913222,53.6822748 22.8837567,55.1754214 L19.4738537,57.1193402 L17.1182978,64.3077194 L11.3813815,74.7891904 L1.84332661,98.2582279 L0,103.866698 C1.24275891,111.163496 2.33428576,115.228527 3.27458054,116.06179 C4.21487532,116.895053 5.93733953,117.237242 8.44197317,117.088358 C10.9543042,119.893039 12.5895067,120.893745 13.3475807,120.090476 C13.6494403,119.770621 14.1264936,119.311329 13.9066035,117.76157 C13.8081308,117.067546 12.839345,115.722157 12.9136668,114.819629 C12.9852044,113.95091 13.7992743,112.983414 14.0683541,111.10622 C14.184031,110.299217 14.184031,108.743884 14.0683541,106.44022 L29.1828334,90.9657899 L37.8761996,92.7996026 L49.3661433,94.8392575 L52.260688,95.6210816 C59.5804785,81.779879 63.7232064,73.7374251 64.6888717,71.49372 C65.654537,69.250015 66.2434105,66.8546814 66.4554922,64.3077194 L62.7188907,60.872591 C71.6635836,57.4363098 76.7456152,54.9272053 77.9649857,53.3452776 C79.7940414,50.972386 83.0965691,43.8111166 83.0965691,41.1002373 C83.0965691,39.2929844 83.3641488,33.0219079 83.8993082,22.287008 C78.6678283,22.9434701 75.6150416,22.9434701 74.740948,22.287008 C73.4298076,21.3023148 72.1983465,17.373056 72.1983465,14.0687444 C72.1983465,11.86587 71.5179013,8.89236615 70.1570109,5.14823285 L66.4554922,4.12905162 C65.8977372,1.37635054 65.3088637,0 64.6888717,0 C64.0688797,0 63.4122194,0.656858538 62.7188907,1.97057561 C61.9320083,4.98451373 61.5385671,6.85856245 61.5385671,7.59272179 C61.5385671,8.69396078 60.7489097,11.8186967 62.7188907,14.0687444 C64.0322114,15.5687762 65.576047,18.3081974 67.3503975,22.287008 C66.2444015,26.3536851 66.2444015,28.9414778 67.3503975,30.0503862 C69.0093915,31.7137486 67.3503975,33.9100742 67.3503975,35.1825642 C67.3503975,36.0308909 67.0520957,38.0034486 66.4554922,41.1002373 C56.2799328,42.8615061 50.4530387,43.4480011 48.9748097,42.8597223 C47.4965806,42.2714434 45.1548621,42.9096646 41.9496541,44.7743857 L37.8761996,48.680472 C38.5774565,45.6691762 38.5774565,43.4589019 37.8761996,42.049649 C36.8243142,39.9357696 36.2396391,38.6025729 36.2396391,36.6819455 C36.2396391,35.8866246 35.1365162,34.0550492 35.1365162,32.7318171 C35.1365162,32.1937563 35.2856554,31.299946 35.5839337,30.0503862 L32.6829993,27.3051185 C33.3647502,27.2729081 33.7478888,27.0809624 33.8324149,26.7292816 C33.9169411,26.3776008 33.2900127,25.910533 31.9516299,25.3280784 Z" id="Path-2-Copy-2"></path>
                <path d="M75.5087625,69.3793223 C72.2502501,78.9046059 69.8939546,85.1622532 68.439876,88.1522642 C66.9857974,91.1422752 64.3855045,95.2310566 60.6389972,100.418608 C63.7357992,103.952727 65.2842002,106.382438 65.2842002,107.70774 C65.2842002,109.695693 64.9416654,120.961023 63.8632281,126.237467 C63.1442699,129.755096 62.4135811,147.390947 61.6711616,179.145021 C61.671683,184.652689 61.1190393,188.059789 60.0132305,189.366322 C58.3545173,191.326122 56.4283454,196.602566 56.4283454,198.037615 C56.4283454,199.472664 50.6177661,204.588789 50.6177661,204.588789 C50.6177661,204.588789 52.235813,207.591052 53.637234,207.591052 C55.038655,207.591052 61.2762299,203.679273 63.8632281,200.419718 C66.4502263,197.160163 68.2888093,197.488621 69.7934601,196.104405 C71.2981108,194.720189 74.0243126,190.994536 72.6612117,189.366322 C71.7524777,188.280847 71.2981108,185.918816 71.2981108,182.280231 C73.3621829,181.058158 74.9280936,180.447122 75.995843,180.447122 C77.597467,180.447122 76.2945834,174.73117 78.3755998,168.727426 C79.762944,164.72493 83.0649902,143.878532 88.2817383,106.188231 C91.4813368,96.7708689 93.6475959,91.6091245 94.7805155,90.7029974 C95.9134351,89.7968703 100.433122,85.9617315 108.339577,79.197581 C120.895538,71.4282446 127.89795,66.9145532 129.346815,65.6565067 C131.520113,63.769437 152.768221,57.7258088 155.67351,53.8758112 C157.61037,51.3091461 161.723656,48.3379041 168.013367,44.9620852 L168.013367,42.5674696 C171.98041,41.2056721 174.579921,40.5247733 175.811899,40.5247733 C177.659867,40.5247733 180.132209,41.6570909 181.451211,38.7651766 C182.770214,35.8732623 181.907924,32.6527287 183.7512,31.1363473 C185.594475,29.619966 188.647959,26.9527635 189.579644,25.3692928 C190.51133,23.7858222 192.500242,22.6567456 191.505786,21.3713353 C190.51133,20.0859251 185.262981,20.7096807 184.50709,21.9236354 C183.7512,23.1375901 179.774838,25.3361311 177.043341,27.763251 C175.222344,29.3813309 171.411908,31.3645841 165.612033,33.7130108 C161.966616,30.4489531 159.569895,29.0860339 158.421868,29.6242534 C156.699829,30.4315826 144.147898,37.0055799 138.296686,38.7651766 C132.445475,40.5247733 112.219286,54.7005137 106.902245,56.016377 C101.585205,57.3322404 97.1052131,58.8496937 94.7805155,60.6044617 C92.4558179,62.3592297 89.5519022,61.6481361 86.2584162,62.0036829 C84.5966117,62.1830822 81.9244255,65.0184836 77.0649198,66.3213035 C76.4424777,66.9178351 75.9237586,67.9371748 75.5087625,69.3793223 Z" id="Path-3-Copy-2"></path>
                <path d="M51.832364,96.3854983 C51.3623419,98.7056514 51.6416308,101.170447 51.832364,102.501103 C52.8611692,109.678597 45.8775599,111.508636 45.8775599,111.508636 L49.5596884,114.683726 C56.962319,113.331534 56.962319,103.907307 56.962319,103.907307 C56.6141928,102.602608 56.2705522,98.3365097 56.4482309,97.1578389 C56.4651912,97.1742852 60.7846613,92.0563295 64.5077678,84.1361643 C66.4198081,80.0686803 68.2273369,74.9762547 69.4612038,71.6205452 C70.653841,68.3769669 70.88189,66.2869795 70.6992214,65.698664 C70.6992214,65.9001862 68.476987,64.9616119 66.3719037,64.3977877 C66.2994245,65.7003088 65.6196416,68.1540198 64.6440336,70.6369434 C63.6524862,73.1604331 61.7269672,76.0952089 60.1289621,79.3839633 C56.3523159,87.1564422 51.6296307,95.9352314 51.832364,96.3854983 Z" id="Shape_2_"></path>
            </g>
        </g>
        <path d="M345.749749,190.516777 C356.43285,196.164231 366.802567,198.966857 376.886267,198.966857 C387.900453,198.966857 393.721674,195.789852 395.373721,189.604327 C395.982659,187.299064 396.293737,184.588239 396.293737,181.474437 L396.293737,178.601863 C396.293737,175.399501 396.06961,172.866869 395.644309,171.038072 C395.314746,169.620951 394.664759,168.537641 393.622221,167.657656 C391.705721,165.999146 386.100716,164.290303 377.179569,162.910741 C368.481987,161.553315 362.44888,160.265916 358.947182,158.992571 C355.468365,157.727546 352.566104,156.323227 350.234116,154.759423 C347.799796,153.126996 345.721361,151.07723 344.000543,148.61062 C340.526571,143.567758 338.842257,136.803336 338.842257,128.368645 L338.842257,127.632088 C338.842257,109.953402 346.545541,98.8483028 361.625064,95.2711271 C366.157602,94.2291645 371.243799,93.7127993 376.886267,93.7127993 L377.843792,93.7127993 C390.906939,93.7127993 401.679326,95.6107913 410.164925,99.4631488 L412.93037,100.718627 L406.954653,118.301023 L403.621088,116.862683 C394.343386,112.859613 385.87315,110.876224 378.21207,110.876224 L377.549169,110.876224 C369.366543,110.876224 363.985217,112.349683 361.358252,114.976647 C359.254966,117.079934 358.068043,121.193237 358.068043,127.411121 C358.068043,134.585904 359.787979,138.732861 362.939922,140.519707 C365.515818,141.913224 370.57824,143.257025 377.964194,144.429399 C385.764955,145.667615 391.585633,146.722535 395.453865,147.601679 C399.670502,148.560005 403.313752,150.159142 406.371152,152.423956 C412.866284,157.295305 415.961458,166.111023 415.961458,178.601863 L415.961458,179.559387 C415.961458,198.647284 407.910878,210.569942 392.127204,214.338253 C387.502842,215.481354 383.109846,216.056627 378.948628,216.056627 C374.978544,216.056627 371.361286,215.917986 368.094219,215.639399 C364.7904,215.357678 361.428137,214.859092 358.023821,214.147701 C349.959966,212.504112 343.146234,210.01697 337.589212,206.661788 L335,205.09849 L342.647386,188.876761 L345.749749,190.516777 Z M441.646938,95.2027709 C441.636514,95.1966219 441.627514,95.1918905 441.620037,95.1884532 C441.623121,95.1898709 441.626338,95.1913122 441.629688,95.192776 L441.646938,95.2027709 Z M444.504887,102.209441 C441.067417,102.209441 438.683771,101.682822 437.082364,100.080778 C435.267882,98.2058135 434.390125,95.7042046 434.390125,92.7651096 C434.390125,90.3673354 434.537363,88.6004733 434.890375,87.3242011 C435.287904,85.8869806 435.93893,84.6683929 436.887705,83.7196179 C438.52537,82.0819531 440.801784,81.3386343 443.542965,81.3386343 C445.703657,81.3386343 447.295389,81.4507281 448.441455,81.7172551 C449.870559,82.0496049 451.121659,82.7192077 452.12207,83.7196179 C453.781103,85.3786516 454.503053,87.7400297 454.503053,90.6663693 C454.503053,93.023096 454.381188,94.7513712 454.094211,95.977544 C453.754736,97.4280269 453.136645,98.6809153 452.12207,99.7701593 C450.393692,101.498537 447.834436,102.209441 444.504887,102.209441 Z M453.985826,120.228867 L453.985826,214.583512 L435.354915,214.583512 L435.196336,120.228867 L453.985826,120.228867 Z M506.371428,216.056627 C493.299944,216.056627 484.185273,211.03078 479.682534,201.06829 C477.24424,195.767652 475.877661,190.155391 475.586579,184.254368 C475.313951,178.72745 475.177402,173.861335 475.177402,169.65269 C475.177402,165.483821 475.214401,161.278276 475.288395,157.035926 C475.364537,152.670499 475.682952,148.620255 476.246003,144.883642 C476.823479,141.051306 477.736302,137.571994 478.9913,134.44785 C480.326519,131.124006 482.26322,128.269166 484.785428,125.91893 C489.980391,121.066492 498.149536,118.755752 509.207174,118.755752 C518.058217,118.755752 526.238518,120.034487 533.733719,122.599541 L533.733719,82.8246904 L552.664882,81 L552.664882,170.941665 C552.664882,187.782806 553.127839,200.916175 554.048379,210.315371 L554.380809,213.70966 L536.962568,215.112472 L535.559498,207.103281 C526.036517,213.053585 516.293631,216.056627 506.371428,216.056627 Z M511.453674,136.508423 C505.980128,136.508423 502.413,136.951545 501.124744,137.612189 C499.718651,138.333263 498.70944,139.215262 498.035206,140.267725 C497.260181,141.477519 496.568968,143.293245 496.019632,145.658463 C494.954579,150.520662 494.403188,158.815496 494.403188,170.426075 L494.403188,172.046501 C494.403188,182.55655 495.530085,189.708899 497.556839,193.266364 C499.493774,196.592044 503.199781,198.303956 509.170346,198.303956 L510.275182,198.303956 C516.430654,198.303956 523.096233,196.308816 530.296244,192.247311 C531.653383,191.489838 532.871096,190.738294 533.948759,189.99474 C533.755537,185.285607 533.660064,178.769589 533.660071,170.344886 L533.728212,140.022113 C526.042204,137.6766 518.619451,136.508423 511.453674,136.508423 Z M596.93731,192.189644 C599.704036,196.515089 605.579364,198.819546 614.957999,198.819546 C624.91534,198.819546 634.434715,196.873467 643.543671,192.976336 L646.863049,191.55619 L652.674854,208.517173 L649.718913,209.702405 C639.145419,213.942019 627.502336,216.056627 614.810688,216.056627 C607.388513,216.056627 601.034534,215.281751 595.770467,213.717977 C586.861273,211.172493 580.765202,205.760094 577.778032,197.64391 C575.214014,190.579778 573.967759,180.406275 573.967759,167.037911 L573.967759,163.281468 C573.967759,146.895337 577.45787,135.129435 584.72354,128.084022 C591.298139,121.785668 601.849686,118.755752 616.283803,118.755752 C630.552047,118.755752 640.633056,122.406712 646.233013,129.986453 C648.916455,133.62028 650.674422,137.980592 651.519629,143.024568 C652.310619,147.744992 652.707387,152.263027 652.707387,156.578795 C652.707387,163.096364 652.557581,168.164802 652.253873,171.809293 L652.008448,174.754391 L649.055813,174.880035 C642.087038,175.176579 635.828589,175.325 630.278394,175.325 L618.419819,175.325 C608.115983,175.325 599.736605,174.95399 593.254993,174.203426 C593.541259,182.836559 594.82037,188.868231 596.93731,192.189644 Z M633.555256,158.382543 L633.555256,154.663746 C633.555256,147.710537 632.267905,142.983215 629.931023,140.416464 C627.333743,137.551818 622.448925,135.992833 615.105311,135.992833 C606.177728,135.992833 600.389572,137.83741 597.559792,141.209872 C595.070526,144.16143 593.560395,149.906479 593.252307,158.382543 L633.555256,158.382543 Z M693.972608,214.583512 L675.041445,214.583512 L675.041445,83.1555863 L693.972608,81.1028096 L693.972608,156.516655 C694.444661,156.193282 694.965137,155.790069 695.531951,155.298496 C698.244241,152.946244 700.64947,150.708543 702.74695,148.587229 C704.863486,146.446641 707.056454,144.097032 709.300121,141.567267 C717.511547,132.092544 722.898679,125.443562 725.401154,121.713457 L726.397145,120.228867 L747.905964,120.228867 L745.836998,124.931064 C744.59107,127.762717 741.950853,131.474705 737.836753,136.265126 L727.912321,147.44715 C722.480996,153.277104 718.11551,157.605064 714.785041,160.452488 C713.783285,161.308951 712.883046,162.057724 712.072239,162.704495 C715.371487,164.944857 719.162758,168.876207 723.592369,174.529319 L755.380058,214.583512 L731.313403,214.583512 L730.307199,213.264354 L711.601794,188.74112 C703.538121,178.203366 697.424496,172.794285 694.147062,172.512316 L693.972608,214.583512 Z M773.980018,95.2027709 C773.969594,95.1966219 773.960594,95.1918905 773.953117,95.1884532 C773.956201,95.1898709 773.959418,95.1913122 773.962768,95.192776 L773.980018,95.2027709 Z M777.837967,102.209441 C774.400497,102.209441 772.016851,101.682822 770.415444,100.080778 C768.600962,98.2058135 767.723205,95.7042046 767.723205,92.7651096 C767.723205,90.3673354 767.870443,88.6004733 768.223455,87.3242011 C768.620984,85.8869806 769.27201,84.6683929 770.220785,83.7196179 C771.85845,82.0819531 774.134864,81.3386343 776.876045,81.3386343 C779.036737,81.3386343 780.628469,81.4507281 781.774535,81.7172551 C783.203639,82.0496049 784.454739,82.7192077 785.45515,83.7196179 C787.114183,85.3786516 787.836133,87.7400297 787.836133,90.6663693 C787.836133,93.023096 787.714268,94.7513712 787.427291,95.977544 C787.087816,97.4280269 786.469725,98.6809153 785.45515,99.7701593 C783.726772,101.498537 781.167516,102.209441 777.837967,102.209441 Z M787.318906,120.228867 L787.318906,214.583512 L768.687995,214.583512 L768.529416,120.228867 L787.318906,120.228867 Z M841.662033,216.056627 C828.22092,216.056627 818.848033,211.059636 814.186281,201.117987 C811.619545,195.77062 810.150449,189.133456 809.734524,181.176034 C809.585058,177.688508 809.510482,173.847839 809.510482,169.65269 C809.510482,165.483821 809.547481,161.278276 809.621476,157.035926 C809.697617,152.670499 810.016032,148.620255 810.579083,144.883642 C811.156559,141.051306 812.069382,137.571994 813.32438,134.44785 C814.659599,131.124006 816.5963,128.269166 819.118508,125.91893 C824.291527,121.086989 831.984609,118.755752 842.067139,118.755752 C849.461475,118.755752 854.274224,120.616771 869.044455,127.907052 L870.007908,120.228867 L886.922269,120.228867 L887,248.096875 L868.066799,248.096875 L868.066799,208.920861 C859.688311,213.667487 850.872157,216.056627 841.662033,216.056627 Z M845.786754,136.508423 C840.313208,136.508423 836.74608,136.951545 835.457824,137.612189 C834.051731,138.333263 833.04252,139.215262 832.368286,140.267725 C831.593261,141.477519 830.902048,143.293245 830.352712,145.658463 C829.287659,150.520662 828.736268,158.815496 828.736268,170.426075 L828.736268,172.046501 C828.736268,182.377386 829.991975,189.477835 832.30405,193.219505 C834.331344,196.573755 838.152997,198.303956 844.239984,198.303956 L845.34482,198.303956 C851.550559,198.303956 857.94344,196.581052 864.587573,193.074711 C865.860411,192.42277 867.020256,191.764893 868.066799,191.102474 L868.066799,143.542002 C857.889512,138.554751 851.815548,136.508423 845.786754,136.508423 Z" id="Sidekiq-Copy" fill="#000000" fill-rule="nonzero"></path>
    </g>
</svg>