<?xml version="1.0" encoding="UTF-8"?>
<svg width="500px" height="550px" viewBox="0 0 500 550" version="1.1" xmlns="http://www.w3.org/2000/svg" xmlns:xlink="http://www.w3.org/1999/xlink">
    <!-- Generator: Sketch 51.3 (57544) - http://www.bohemiancoding.com/sketch -->
    <title>Sidekiq-Alt-Square-v3</title>
    <desc>Created with Sketch.</desc>
    <defs>
        <circle id="path-1" cx="149.238477" cy="149.238477" r="149.238477"></circle>
    </defs>
    <g id="Sidekiq-Alt-Square-v3" stroke="none" stroke-width="1" fill="none" fill-rule="evenodd">
        <g id="Group-7" transform="translate(100.000000, 60.000000)">
            <g id="Rectangle" transform="translate(0.304760, 0.000000)">
                <mask id="mask-2" fill="white">
                    <use xlink:href="#path-1"></use>
                </mask>
                <use id="Mask" fill="#B1003E" fill-rule="nonzero" xlink:href="#path-1"></use>
            </g>
            <g id="Group-5" transform="translate(50.269264, 46.691198)" fill="#FFFFFF" fill-rule="nonzero">
                <path d="M39.9395374,31.660098 C28.0533651,32.258752 20.3016779,34.6112623 16.6844758,38.7176288 C13.0672738,42.8239954 12.7899952,48.5741132 15.8526401,55.9679822 C17.9854555,59.4968861 19.8338662,62.0793863 21.3978722,63.7154825 C22.9618782,65.3515787 25.3641528,67.1028435 28.6046959,68.9692767 L24.3423172,71.3991752 L21.3978722,80.3846492 L14.2267269,93.486488 L2.30415827,122.822785 L0,129.833372 C1.55344864,138.95437 2.9178572,144.035659 4.09322567,145.077237 C5.26859415,146.118816 7.42167441,146.546553 10.5524665,146.360447 C13.6928802,149.866299 15.7368833,151.117182 16.6844758,150.113096 C17.0618004,149.713276 17.658117,149.139161 17.3832544,147.201962 C17.2601635,146.334433 16.0491813,144.652697 16.1420834,143.524536 C16.2315054,142.438638 17.2490929,141.229268 17.5854427,138.882775 C17.7300388,137.874022 17.7300388,135.929855 17.5854427,133.050274 L36.4785418,113.707237 L47.3452495,115.999503 L61.7076791,118.549072 L65.32586,119.526352 C74.4755981,102.224849 79.654008,92.1717814 80.8610897,89.36715 C82.0681713,86.5625187 82.8042631,83.5683517 83.0693652,80.3846492 L78.3986134,76.0907388 C89.5794795,71.7953872 95.932019,68.6590067 97.4562321,66.681597 C99.7425517,63.7154825 103.870711,54.7638958 103.870711,51.3752966 C103.870711,49.1162305 104.205186,41.2773849 104.874135,27.85876 C98.3347854,28.6793377 94.518802,28.6793377 93.426185,27.85876 C91.7872595,26.6278935 90.2479331,21.71632 90.2479331,17.5859305 C90.2479331,14.8323375 89.3973766,11.1154577 87.6962637,6.43529106 L83.0693652,5.16131452 C82.3721715,1.72043817 81.6360797,0 80.8610897,0 C80.0860996,0 79.2652742,0.821073172 78.3986134,2.46321952 C77.4150104,6.23064216 76.9232088,8.57320307 76.9232088,9.49090223 C76.9232088,10.867451 75.9361372,14.7733709 78.3986134,17.5859305 C80.0402642,19.4609703 81.9700587,22.8852468 84.1879969,27.85876 C82.8055019,32.9421064 82.8055019,36.1768473 84.1879969,37.5629827 C86.2617393,39.6421858 84.1879969,42.3875928 84.1879969,43.9782053 C84.1879969,45.0386136 83.8151197,47.5043107 83.0693652,51.3752966 C70.3499161,53.5768827 63.0662983,54.3100014 61.2185121,53.5746528 C59.3707258,52.8393043 56.4435776,53.6370807 52.4370676,55.9679822 L47.3452495,60.85059 C48.2218206,57.0864703 48.2218206,54.3236274 47.3452495,52.5620612 C46.0303927,49.919712 45.2995489,48.2532161 45.2995489,45.8524319 C45.2995489,44.8582808 43.9206453,42.5688115 43.9206453,40.9147713 C43.9206453,40.2421954 44.1070692,39.1249325 44.4799172,37.5629827 L40.8537491,34.1313982 C41.7059378,34.0911351 42.184861,33.851203 42.2905187,33.411602 C42.3961764,32.972001 41.6125159,32.3881663 39.9395374,31.660098 Z" id="Path-2-Copy-2"></path>
                <path d="M94.3859531,86.7241529 C90.3128126,98.6307574 87.3674432,106.452816 85.549845,110.19033 C83.7322467,113.927844 80.4818806,119.038821 75.7987465,125.523261 C79.669749,129.940909 81.6052502,132.978047 81.6052502,134.634675 C81.6052502,137.119617 81.1770817,151.201278 79.8290351,157.796833 C78.9303374,162.19387 78.0169763,184.238684 77.088952,223.931276 C77.0896037,230.815861 76.3987991,235.074737 75.0165381,236.707903 C72.9431466,239.157653 70.5354318,245.753208 70.5354318,247.547019 C70.5354318,249.34083 63.2722076,255.735986 63.2722076,255.735986 C63.2722076,255.735986 65.2947662,259.488815 67.0465425,259.488815 C68.7983188,259.488815 76.5952874,254.599091 79.8290351,250.524648 C83.0627829,246.450204 85.3610117,246.860776 87.2418251,245.130506 C89.1226384,243.400236 92.5303908,238.74317 90.8265146,236.707903 C89.6905972,235.351058 89.1226384,232.39852 89.1226384,227.850289 C91.7027286,226.322698 93.660117,225.558903 94.9948037,225.558903 C96.9968337,225.558903 95.3682292,218.413963 97.9694997,210.909283 C99.70368,205.906163 103.831238,179.848164 110.352173,132.735288 C114.351671,120.963586 117.059495,114.511406 118.475644,113.378747 C119.891794,112.246088 125.541403,107.452164 135.424471,98.9969763 C151.119422,89.2853058 159.872438,83.6431915 161.683519,82.0706334 C164.400141,79.7117962 190.960276,72.157261 194.591888,67.344764 C197.012963,64.1364326 202.15457,60.4223802 210.016708,56.2026065 L210.016708,53.209337 C214.975513,51.5070901 218.224901,50.6559667 219.764874,50.6559667 C222.074834,50.6559667 225.165261,52.0713636 226.814014,48.4564708 C228.462767,44.8415779 227.384906,40.8159108 229.689,38.9204341 C231.993094,37.0249574 235.809949,33.6909544 236.974555,31.711616 C238.139162,29.7322777 240.625302,28.320932 239.382232,26.7141692 C238.139162,25.1074063 231.578726,25.8871008 230.633863,27.4045442 C229.689,28.9219876 224.718548,31.6701639 221.304177,34.7040637 C219.027929,36.7266636 214.264884,39.2057302 207.015042,42.1412635 C202.45827,38.0611913 199.462368,36.3575424 198.027336,37.0303168 C195.874787,38.0394783 180.184872,46.2569749 172.870858,48.4564708 C165.556844,50.6559667 140.274107,68.3756421 133.627806,70.0204713 C126.981506,71.6653005 121.381516,73.5621171 118.475644,75.7555771 C115.569772,77.9490371 111.939878,77.0601701 107.82302,77.5046036 C105.745765,77.7288528 102.405532,81.2731046 96.3311498,82.9016294 C95.5530971,83.6472939 94.9046982,84.9214684 94.3859531,86.7241529 Z" id="Path-3-Copy-2"></path>
                <path d="M64.790455,120.481873 C64.2029273,123.382064 64.5520385,126.463059 64.790455,128.126379 C66.0764615,137.098246 57.3469499,139.385795 57.3469499,139.385795 L61.9496105,143.354658 C71.2028988,141.664417 71.2028988,129.884133 71.2028988,129.884133 C70.7677409,128.25326 70.3381903,122.920637 70.5602887,121.447299 C70.581489,121.467857 75.9808267,115.070412 80.6347097,105.170205 C83.0247601,100.08585 85.2841711,93.7203183 86.8265048,89.5256815 C88.3173013,85.4712086 88.6023625,82.8587244 88.3740267,82.1233299 C88.3740267,82.3752327 85.5962337,81.2020148 82.9648796,80.4972346 C82.8742806,82.125386 82.024552,85.1925248 80.805042,88.2961793 C79.5656077,91.4505413 77.158709,95.1190112 75.1612026,99.2299541 C70.4403948,108.945553 64.5370383,119.919039 64.790455,120.481873 Z" id="Shape_2_"></path>
            </g>
        </g>
        <path d="M92.4136352,470.341122 C98.7875064,473.71057 104.974403,475.382704 110.990652,475.382704 C117.562059,475.382704 121.035181,473.487204 122.020844,469.796726 C122.384155,468.421334 122.569754,466.803972 122.569754,464.94618 L122.569754,463.232313 C122.569754,461.321684 122.436033,459.810637 122.182285,458.71952 C121.985657,457.874022 121.597855,457.227685 120.975844,456.702658 C119.8324,455.71314 116.48828,454.693591 111.165645,453.870501 C105.976397,453.060618 102.376857,452.292516 100.287635,451.532799 C98.2120643,450.778046 96.4804852,449.940185 95.0891486,449.007171 C93.6367571,448.033214 92.3966981,446.810259 91.3700043,445.338603 C89.2973244,442.329874 88.2924101,438.294009 88.2924101,433.26161 L88.2924101,432.822157 C88.2924101,422.274502 92.8884296,415.648854 101.885343,413.514599 C104.589596,412.892932 107.62418,412.584852 110.990652,412.584852 L111.561941,412.584852 C119.355822,412.584852 125.782964,413.717253 130.845737,416.01569 L132.495687,416.764747 L128.930389,427.254953 L126.94148,426.396794 C121.406114,424.008438 116.352507,422.825087 111.781668,422.825087 L111.38616,422.825087 C106.50415,422.825087 103.293484,423.704198 101.726155,425.271527 C100.471269,426.526413 99.7631133,428.980538 99.7631133,432.690321 C99.7631133,436.971021 100.789281,439.445225 102.669829,440.511312 C104.206688,441.342728 107.227087,442.144482 111.633777,442.843956 C116.287954,443.582714 119.760753,444.212113 122.06866,444.736637 C124.584437,445.308405 126.758114,446.2625 128.582254,447.613759 C132.457452,450.520157 134.304129,455.779889 134.304129,463.232313 L134.304129,463.803602 C134.304129,475.192037 129.500902,482.305466 120.08387,484.553757 C117.324832,485.235767 114.703834,485.578993 112.221121,485.578993 C109.852445,485.578993 107.694276,485.496276 105.745043,485.330062 C103.773881,485.161978 101.76785,484.864506 99.7367292,484.440068 C94.9255821,483.459452 90.8602971,481.975546 87.5448048,479.973739 L86,479.041027 L90.5626689,469.362638 L92.4136352,470.341122 Z M149.628887,413.473816 C149.622668,413.470147 149.617298,413.467324 149.612837,413.465273 C149.614677,413.466119 149.616597,413.466979 149.618595,413.467853 L149.628887,413.473816 Z M151.334029,417.654214 C149.283127,417.654214 147.860969,417.340016 146.90552,416.384187 C145.822944,415.265525 145.299246,413.772987 145.299246,412.019431 C145.299246,410.588844 145.387093,409.534679 145.597711,408.773215 C145.834889,407.915725 146.223312,407.188678 146.78938,406.622609 C147.766462,405.645527 149.124642,405.20204 150.760116,405.20204 C152.049252,405.20204 152.998929,405.268918 153.682708,405.427937 C154.535356,405.626227 155.281801,406.025733 155.878677,406.622609 C156.868508,407.61244 157.299246,409.021312 157.299246,410.767257 C157.299246,412.173354 157.226537,413.204497 157.055318,413.93607 C156.852777,414.801473 156.484004,415.548985 155.878677,416.198862 C154.847473,417.230066 153.320541,417.654214 151.334029,417.654214 Z M156.990652,428.405165 L156.990652,484.700087 L145.87487,484.700087 L145.780257,428.405165 L156.990652,428.405165 Z M188.245535,485.578993 C180.446681,485.578993 175.008584,482.580416 172.322109,476.636484 C170.867347,473.473958 170.052003,470.125508 169.878335,466.604774 C169.715676,463.307243 169.634207,460.403967 169.634207,457.892958 C169.634207,455.405681 169.656282,452.896521 169.700429,450.365404 C169.745857,447.760853 169.935834,445.344352 170.271768,443.114972 C170.616308,440.828481 171.160926,438.752615 171.909697,436.888653 C172.706331,434.905544 173.861827,433.202258 175.366655,431.800034 C178.466132,428.904918 183.340098,427.526259 189.93743,427.526259 C195.218237,427.526259 200.09886,428.289192 204.57073,429.819583 L204.57073,406.088667 L215.865652,405 L215.865652,458.662001 C215.865652,468.70995 216.141867,476.545727 216.69109,482.153581 L216.889428,484.178719 L206.497162,485.01568 L205.660047,480.237148 C199.97834,483.787285 194.165431,485.578993 188.245535,485.578993 Z M191.277762,438.118055 C188.012073,438.118055 185.883814,438.382435 185.1152,438.776597 C184.276281,439.206811 183.674154,439.73304 183.271885,440.360972 C182.809481,441.082773 182.397082,442.166091 182.069331,443.577254 C181.433887,446.478193 181.10491,451.42715 181.10491,458.354384 L181.10491,459.32118 C181.10491,465.591803 181.777252,469.859117 182.986477,471.981612 C184.142112,473.965816 186.353232,474.987196 189.915457,474.987196 L190.574637,474.987196 C194.247183,474.987196 198.224075,473.796834 202.519826,471.373613 C203.329537,470.921681 204.056063,470.473286 204.699031,470.029659 C204.583748,467.220043 204.526786,463.332384 204.52679,458.305944 L204.567445,440.214432 C199.981733,438.815026 195.553087,438.118055 191.277762,438.118055 Z M242.279963,471.339207 C243.930678,473.919902 247.436082,475.294813 253.031668,475.294813 C258.972528,475.294813 264.652084,474.133722 270.08677,471.808572 L272.067215,470.961269 L275.534719,481.08072 L273.771112,481.787866 C267.462636,484.317352 260.51601,485.578993 252.943777,485.578993 C248.515477,485.578993 244.724495,485.116678 241.583788,484.183681 C236.268285,482.664966 232.63118,479.43576 230.84894,474.593392 C229.319167,470.378711 228.575613,464.308882 228.575613,456.332899 L228.575613,454.091688 C228.575613,444.315212 230.657922,437.295308 234.992847,433.091795 C238.915458,429.334 245.21084,427.526259 253.822684,427.526259 C262.335562,427.526259 268.350207,429.704535 271.691316,434.226844 C273.292341,436.394899 274.341199,438.996397 274.845475,442.00579 C275.317405,444.822142 275.554129,447.517743 275.554129,450.092665 C275.554129,453.981249 275.46475,457.005237 275.283549,459.179654 L275.13712,460.936792 L273.375486,461.011755 C269.217698,461.188682 265.483712,461.277235 262.172293,461.277235 L255.097098,461.277235 C248.949508,461.277235 243.950109,461.055879 240.082978,460.608069 C240.253773,465.758865 241.016931,469.357548 242.279963,471.339207 Z M264.127371,451.168837 L264.127371,448.950087 C264.127371,444.801585 263.359297,441.981118 261.96504,440.449714 C260.415422,438.740577 257.500988,437.810438 253.119559,437.810438 C247.793084,437.810438 244.33969,438.91097 242.651355,440.923086 C241.166181,442.684077 240.26519,446.111753 240.081376,451.168837 L264.127371,451.168837 Z M300.174246,484.700087 L288.879324,484.700087 L288.879324,406.28609 L300.174246,405.061339 L300.174246,450.05559 C300.455888,449.862656 300.76642,449.622086 301.104599,449.328798 C302.722836,447.925372 304.15787,446.59029 305.409292,445.324647 C306.672083,444.047506 307.980477,442.645656 309.319118,441.136319 C314.218311,435.483404 317.432442,431.516414 318.925496,429.290918 L319.519736,428.405165 L332.352567,428.405165 L331.118157,431.210642 C330.374798,432.900094 328.799563,435.114782 326.344962,437.972897 L320.423737,444.64444 C317.183239,448.122773 314.578654,450.704969 312.591592,452.403831 C311.993913,452.914823 311.456803,453.361565 310.97305,453.747448 C312.941484,455.084118 315.203475,457.429684 317.846318,460.802507 L336.811845,484.700087 L322.452928,484.700087 L321.852595,483.913036 L310.692368,469.28171 C305.881329,462.994558 302.23375,459.767331 300.278331,459.5991 L300.174246,484.700087 Z M347.90916,413.473816 C347.902941,413.470147 347.897572,413.467324 347.89311,413.465273 C347.89495,413.466119 347.89687,413.466979 347.898869,413.467853 L347.90916,413.473816 Z M349.614302,417.654214 C347.5634,417.654214 346.141243,417.340016 345.185793,416.384187 C344.103217,415.265525 343.57952,413.772987 343.57952,412.019431 C343.57952,410.588844 343.667367,409.534679 343.877984,408.773215 C344.115162,407.915725 344.503585,407.188678 345.069654,406.622609 C346.046736,405.645527 347.404915,405.20204 349.040389,405.20204 C350.329526,405.20204 351.279202,405.268918 351.962981,405.427937 C352.815629,405.626227 353.562075,406.025733 354.15895,406.622609 C355.148782,407.61244 355.57952,409.021312 355.57952,410.767257 C355.57952,412.173354 355.506811,413.204497 355.335592,413.93607 C355.13305,414.801473 354.764278,415.548985 354.15895,416.198862 C353.127747,417.230066 351.600815,417.654214 349.614302,417.654214 Z M355.270926,428.405165 L355.270926,484.700087 L344.155144,484.700087 L344.06053,428.405165 L355.270926,428.405165 Z M387.097098,485.578993 C379.077711,485.578993 373.485554,482.597632 370.704208,476.666135 C369.172813,473.475729 368.296305,469.51579 368.048151,464.768144 C367.958975,462.687377 367.91448,460.395915 367.91448,457.892958 C367.91448,455.405681 367.936555,452.896521 367.980703,450.365404 C368.026131,447.760853 368.216107,445.344352 368.552041,443.114972 C368.896581,440.828481 369.4412,438.752615 370.189971,436.888653 C370.986604,434.905544 372.1421,433.202258 373.646928,431.800034 C376.733312,428.917147 381.323245,427.526259 387.338797,427.526259 C391.750488,427.526259 394.621924,428.636601 403.434304,432.986209 L404.00913,428.405165 L414.100765,428.405165 L414.147142,504.695204 L402.851004,504.695204 L402.851004,481.321572 C397.852137,484.153557 392.592145,485.578993 387.097098,485.578993 Z M389.558035,438.118055 C386.292347,438.118055 384.164087,438.382435 383.395473,438.776597 C382.556554,439.206811 381.954427,439.73304 381.552158,440.360972 C381.089755,441.082773 380.677355,442.166091 380.349604,443.577254 C379.71416,446.478193 379.385184,451.42715 379.385184,458.354384 L379.385184,459.32118 C379.385184,465.484908 380.134377,469.721257 381.513833,471.953654 C382.72338,473.954904 385.003497,474.987196 388.635184,474.987196 L389.294363,474.987196 C392.996901,474.987196 396.811092,473.959258 400.77519,471.867266 C401.534604,471.478297 402.226604,471.085787 402.851004,470.690567 L402.851004,442.314507 C396.778918,439.338958 393.155001,438.118055 389.558035,438.118055 Z" id="Sidekiq-Copy" fill="#000000" fill-rule="nonzero"></path>
    </g>
</svg>