<?xml version="1.0" encoding="utf-8"?>
<!-- Generator: Adobe Illustrator 15.0.2, SVG Export Plug-In . SVG Version: 6.00 Build 0)  -->
<!DOCTYPE svg PUBLIC "-//W3C//DTD SVG 1.1//EN" "http://www.w3.org/Graphics/SVG/1.1/DTD/svg11.dtd">
<svg version="1.1" id="Layer_1" xmlns="http://www.w3.org/2000/svg" xmlns:xlink="http://www.w3.org/1999/xlink" x="0px" y="0px"
	 width="250.3px" height="295.4px" viewBox="0 0 250.3 295.4" enable-background="new 0 0 250.3 295.4" xml:space="preserve">
<path fill="#DC4A17" d="M214.3,250H0V0h250v214.3C250,234,234,250,214.3,250z"/>
<polygon fill="#C64013" points="189.3,52 25.4,0 0.3,0 0.3,121.3 "/>
<polygon fill="#E25826" points="0,0 189,52 250,0 "/>
<g>
	<path fill="#F5F5F5" d="M19.1,266.4c3.3,0,6.3,1.3,8.8,3.8c0.9,1.1,1.3,2.3,1.3,3.7c0,3.3-2.5,5.7-7.5,7l-0.9,0.1l-6.5-0.399v0.1
		l14.7,7.7c0.3,0.3,0.5,1,0.7,2.1c-0.2,1.3-0.8,2-1.7,2c-0.3,0-7.6-3.7-22.2-11H5.5v0.101l0.1,12.1c0,0.6-0.5,1-1.5,1.2
		c-0.9,0-1.5-0.4-1.8-1.101l0.1-2.6v-5.3L2.3,279.8c-1.2-0.3-1.7-1.199-1.7-2.6l-0.1-0.8c0-1,0.6-1.5,1.8-1.7v-1.8
		c-0.6-0.3-1.1-1-1.3-1.8c-0.4-0.601-0.6-1.2-0.6-1.601c0-0.8,0.7-1.3,2.1-1.5c0-0.3,0.5-0.7,1.4-1l1.4,0.601
		C11.9,266.8,16.5,266.4,19.1,266.4z M5.5,272.4v2.7c0,0.199,2.8,0.6,8.4,1.3c2.9,0.3,5.1,0.399,6.6,0.399
		c2.7,0,4.4-0.899,5.1-2.699l0.2-0.7c-0.7-1.7-2.4-2.5-4.9-2.5C17.6,270.9,12.5,271.4,5.5,272.4z"/>
	<path fill="#F5F5F5" d="M49.4,266.3c1.1,0.101,1.7,0.601,1.7,1.601l-0.1,1.6l0.3,15.2c0.7,0.4,1,0.9,1,1.5v0.5c0,1-0.3,1.9-1,2.7
		v0.2L51.4,292c0,0.8-0.6,1.3-1.7,1.5c-0.9,0-1.4-0.6-1.5-1.899v-0.4H48c-3.4,2.1-5.9,3.2-7.3,3.2H40c-3.1,0-5.2-1.601-6.1-4.7
		c-0.6-2.1-1-3.6-1-4.5l0.1-13.7l-0.2-1.399c0-1,0.6-1.5,1.8-1.5c0.7,0,1.2,0.5,1.5,1.399L36,270.6L36.1,281v2.2
		c0,3.6,0.8,5.7,2.5,6.4l0.5,0.1H40c0.6,0,3.3-1.3,8.2-3.9l-0.1-1.3c-0.1-9.8-0.3-15.399-0.4-16.7C47.7,267,48.3,266.5,49.4,266.3z"
		/>
	<path fill="#F5F5F5" d="M71.3,267.1c5.1,0,8.2,1.6,9.4,4.699l0.2,1.2c0,0.9-0.5,2.3-1.5,4.2v0.1c0,0.301,0.7,0.7,2,1.2
		c2,1,2.9,2.5,2.9,4.5l0.1,0.8c0,2.601-2.1,5.301-6.4,8.101c-1.5,1-6.9,1.6-16.2,1.6h-2.4v0.101c0,1.2-0.5,1.8-1.4,1.8
		c-0.7,0-1.2-0.601-1.5-1.7c-0.4,0-0.7-0.6-0.9-1.8v-0.4c0-0.6,0.3-1.5,0.9-2.6V288.8l-0.1-7.1h-0.3l-0.1,0.1
		c-0.7-0.3-1.1-0.899-1.1-2.1c0-1.3,0.5-2.3,1.4-3v-0.1l-0.1-3.801c-1.1-1-1.6-1.899-1.6-2.6c0-0.8,0.6-1.3,1.8-1.4
		c0.3-0.5,0.7-0.699,1.3-0.699l1,0.5C63.4,267.8,67.6,267.4,71.3,267.1z M58.9,273.6v2.8h2.9c9.1,0,14.1-0.601,14.8-1.9
		c0.3,0,0.6-0.5,0.8-1.399c0-0.9-1.5-1.301-4.4-1.301h-1.7c-3.9,0-8,0.4-12.1,1.2C59.1,273.2,58.9,273.4,58.9,273.6z M59,281.5
		l0.1,3.9v2l0.1,1.5h0.1c9.8,0,15.2-0.3,16.1-0.9c4-1.3,5.9-2.8,5.9-4.3c0-2.5-2.6-3.7-7.9-3.7C65,280.5,60.2,281.1,59,281.5z"/>
	<path fill="#F5F5F5" d="M113.2,268.8c0.8,0,1.3,0.5,1.6,1.601v0.1c0,0.8-1,1.601-3,2.3c-5.6,2.9-8.5,4.4-8.6,4.5l0.1,0.301
		C103.2,278,103,278.5,102.6,279l0.2,13.7c-0.3,1-0.9,1.5-1.6,1.5c-1.1-0.1-1.6-0.7-1.6-1.6v-8.2l-0.1-5.2h-0.2
		c-0.8,0.5-1.3,0.8-1.7,0.8c-0.9-0.399-1.4-1-1.4-1.8l0.3-1.1c-3.9-1.9-6.6-3.2-8.2-3.7c-0.3-0.3-0.5-0.7-0.5-1.101
		c0-1,0.5-2,1.5-2.899c0.3,0,0.5-0.101,0.5-0.2c0.2,0,4.1,1.7,11.7,5.2h0.3l11.1-5.601H113.2L113.2,268.8z"/>
	<path fill="#F5F5F5" d="M154.5,267c1.101,0.2,1.601,0.7,1.601,1.5L156,270l0.101,9.101v2.3c0.899,0.6,1.3,1.1,1.3,1.5
		c-0.199,1.7-0.6,2.6-1.3,2.6v2.601l0.101,5c0,0.8-0.601,1.3-1.701,1.5c-1,0-1.5-0.601-1.5-1.7l0.101-1.4L153,289v-3L137.8,286.1
		l-0.301,0.1v5.3l0.101,0.101c-0.2,1.199-0.7,1.699-1.601,1.699H135.8c-1-0.1-1.5-0.6-1.5-1.399h-0.1l0.1-0.601V290.1l-0.1-3.9
		c-1.101-0.2-1.601-0.7-1.601-1.6c0-1.2,0.5-2.2,1.601-3l-0.101-3.9v-1.8L134,269.1c0.201-0.801,0.701-1.2,1.701-1.2
		c0.799,0,1.299,0.399,1.5,1.1L137.1,270.1l0.101,11.399h0.1l9.8,0.101h5.5l0.101-6.2v-3.5l-0.101-3.4
		C152.9,267.6,153.4,267.2,154.5,267z"/>
	<path fill="#F5F5F5" d="M163.701,266.2c0.199,0,0.699,0.2,1.6,0.5h8.1l7.9,0.1c0.8,0,1.4,0.9,2,2.601l0.1,0.6
		c-0.3,1-1.1,1.601-2.3,1.601l-15.8,0.3l0.1,2.3v2.8h13.4c1.4,0,2.199,0.601,2.6,1.7l0.2,1c0,1.3-0.7,1.9-2.2,1.9h-13.8v7.1h0.101
		l16,0.1c0.699,0,1.399,0.9,1.899,2.801c0,0.899-0.7,1.5-2,1.699L166,293.6c-0.399,1.1-1,1.6-1.799,1.6c-0.9,0-1.601-0.8-1.9-2.3
		c-1-1.5-1.5-2.3-1.5-2.601c0-0.8,0.6-1.3,1.699-1.6l-0.1-0.6V281.3c-1.199-1-1.699-2-1.699-2.8s0.5-1.399,1.6-1.6v-5.3
		c-0.9-1-1.5-2-1.6-3.2c0-0.9,0.6-1.5,1.899-1.7C163,266.4,163.5,266.2,163.701,266.2z"/>
	<path fill="#F5F5F5" d="M204.6,266.4c3.3,0,6.3,1.3,8.8,3.8c0.9,1.1,1.301,2.3,1.301,3.7c0,3.3-2.5,5.7-7.5,7l-0.9,0.1l-6.5-0.399
		v0.1l14.699,7.7c0.301,0.3,0.5,1,0.701,2.1c-0.201,1.3-0.801,2-1.701,2c-0.299,0-7.6-3.7-22.199-11H191v0.101l0.101,12.1
		c0,0.6-0.5,1-1.5,1.2c-0.899,0-1.5-0.4-1.8-1.101l0.1-2.6v-5.3l-0.1-6.101c-1.2-0.3-1.7-1.199-1.7-2.6L186,276.4
		c0-1,0.601-1.5,1.801-1.7v-1.8c-0.6-0.3-1.1-1-1.301-1.8c-0.399-0.601-0.6-1.2-0.6-1.601c0-0.8,0.7-1.3,2.1-1.5
		c0-0.3,0.5-0.7,1.4-1l1.4,0.601C197.4,266.8,202,266.4,204.6,266.4z M191,272.4v2.7c0,0.199,2.801,0.6,8.4,1.3
		c2.9,0.3,5.1,0.399,6.6,0.399c2.701,0,4.4-0.899,5.101-2.699l0.2-0.7c-0.7-1.7-2.4-2.5-4.9-2.5C203.1,270.9,198,271.4,191,272.4z"
		/>
	<path fill="#F5F5F5" d="M236.9,267.4c3.7,0,6.7,1.5,9,4.5c1.301,2,2,4,2,6c0,4.899-3.6,9.6-10.9,14c-3.399,1.5-6.299,2.3-8.699,2.3
		c-3.7,0-6.6-1.8-8.7-5.4c-0.8-1.699-1.2-3.399-1.3-5.199c0-3.5,1.699-7,5.199-10.5c2.5-2.4,5.9-4.101,10-5.2L236.9,267.4z
		 M221.6,282.9v1c0,2.3,1.399,4,4.2,5.1c0.8,0.3,1.8,0.5,3,0.5h0.699c3,0,6.9-1.7,11.9-5.2c2-1.8,2.9-3.5,2.9-5.199v-1
		c0-1.801-0.801-3.2-2.4-4.2c-1.6-1.2-3.5-1.7-5.6-1.7c-4,0-8.1,1.9-12.4,5.6C222.4,279.6,221.6,281.3,221.6,282.9z"/>
</g>
<g>
	<path fill="none" d="M102.5,250H200C227.6,250,250.3,227.6,250.3,200v-34.3L102.5,250z"/>
	<polygon fill="none" points="250.3,93.9 250.3,0 0.3,0 0.3,250 99.3,250 189.3,52 	"/>
	<polygon fill="#E25826" points="250.3,93.9 189.9,52 99.3,250 102.5,250 250.3,165.5 	"/>
</g>
<polygon fill="#FFFFFF" points="64.5,109 96.9,77 152.8,77 185.5,109.2 124.9,169.9 "/>
</svg>
